<?xml version="1.0" encoding="UTF-8" standalone="no"?><svg width="100%" height="100%" viewBox="0 0 21000 2038" version="1.1" xmlns="http://www.w3.org/2000/svg" xmlns:xlink="http://www.w3.org/1999/xlink" xml:space="preserve" xmlns:serif="http://www.serif.com/" style="fill-rule:evenodd;clip-rule:evenodd;stroke-linejoin:round;stroke-miterlimit:2;"><g><path d="M5987.5,841.667l67.458,61.542c18.333,19 52.917,30.75 90.333,30.625l1.333,0c37.875,-0.125 72.625,-12.417 90.25,-31.958l46.458,-47.333l0,778.792l-295.833,0l0,-791.667Z" style="fill:#0e3a27;fill-rule:nonzero;"></path><path d="M3054.167,379.167l293.958,0l0,410.75l3.833,-3.833c23.458,-19.25 48.75,-36.042 75.958,-50.375c54.375,-28.667 114.417,-43 180.125,-43c85.458,0 156.708,17.042 213.792,51.083c57.042,34.042 99.625,78.5 127.708,133.458c28.083,54.958 42.125,114.083 42.125,177.375l0,578.708l-293.958,0l0,-496.292c0,-52.542 -15.25,-95.25 -45.708,-128.125c-30.5,-32.833 -73.208,-49.542 -128.167,-50.125c-37.083,-0.625 -68.583,6.708 -94.583,21.917c-26,15.25 -46,37.042 -60.042,65.417c-14.042,28.375 -21.083,61.958 -21.083,100.792l0,486.417l-293.958,0l0,-1254.167Z" style="fill:#0e3a27;fill-rule:nonzero;"></path><path d="M661.417,354.167c104.25,0 191.833,13.125 262.75,39.417c70.917,26.292 134.958,63.625 192.167,112.042l-148.375,244.625c-34.542,-35.833 -76.25,-62.583 -125.125,-80.208c-48.875,-17.625 -102.792,-26.417 -161.75,-26.417c-58.417,0 -110.417,8.5 -156,25.542c-45.583,17 -84.292,41.375 -116.167,73c-31.875,31.667 -56.167,69.917 -72.833,114.708c-16.708,44.833 -25.042,95 -25.042,150.542c0,76.5 15.042,141.917 45.125,196.292c30.083,54.333 73.167,96 129.167,125c56,28.958 123.042,43.458 201.083,43.458c56,0 111.583,-8.542 166.708,-25.542c55.125,-17.042 107.417,-44.667 156.833,-82.917l135.875,250.042c-57.792,44.792 -126.917,80.792 -207.375,107.958c-80.417,27.208 -174.292,40.792 -281.542,40.792c-129.292,0 -243.375,-26.583 -342.292,-79.75c-98.917,-53.167 -176.083,-128.458 -231.5,-225.833c-55.417,-97.375 -83.125,-212.375 -83.125,-345c0,-96.792 16.25,-185.333 48.708,-265.708c32.458,-80.333 78.375,-149.792 137.625,-208.333c59.292,-58.542 129.333,-103.792 210.042,-135.75c80.75,-31.958 169.083,-47.958 265.042,-47.958Z" style="fill:#0e3a27;fill-rule:nonzero;"></path><path d="M2008.333,379.167l966.667,0l0,271.417l-333.875,0l0,982.75l-298.917,0l0,-982.75l-333.875,0l0,-271.417Z" style="fill:#0e3a27;fill-rule:nonzero;"></path><path d="M5483.042,683.333c73.792,0 143.583,9.875 209.375,29.583c65.75,19.708 122.167,47.167 169.208,82.417l-88.417,201.667c-24.417,-18.542 -52.542,-34.958 -84.375,-49.292c-31.833,-14.333 -64.708,-25.417 -98.667,-33.167c-33.917,-7.75 -66.958,-11.667 -99.083,-11.667c-39.875,0 -72.167,6.125 -96.875,18.375c-24.708,12.25 -37.083,29.125 -37.083,50.625c0,22.125 10.75,38.542 32.167,49.292c21.417,10.75 64.292,23 128.583,36.75c129.75,26.292 221.708,61.667 275.875,106.208c54.167,44.5 81.25,106.792 81.25,186.833c0,62.125 -16.833,116.208 -50.458,162.208c-33.625,46 -80.333,81.708 -140.167,107.083c-59.833,25.375 -129.625,38.083 -209.375,38.083c-84.542,0 -161.75,-10.458 -231.708,-31.375c-69.917,-20.917 -130.208,-50.458 -180.792,-88.708l91.083,-201.625c49.375,31.667 102.375,56.583 158.917,74.833c56.542,18.208 110.125,27.333 160.708,27.333c46.417,0 81.833,-6.417 106.25,-19.292c24.417,-12.833 36.625,-31.5 36.625,-56c0,-21.5 -11.167,-37.333 -33.5,-47.5c-22.333,-10.167 -65.917,-21.208 -130.792,-33.167c-122.625,-20.875 -212.375,-55.375 -269.208,-103.5c-56.833,-48.083 -85.25,-113.958 -85.25,-197.583c0,-59.75 16.375,-112 49.083,-156.833c32.75,-44.792 78.125,-79.583 136.167,-104.375c58.042,-24.792 124.875,-37.208 200.458,-37.208Z" style="fill:#0e3a27;fill-rule:nonzero;"></path><path d="M6787.208,683.333c73.792,0 143.583,9.875 209.375,29.583c65.75,19.708 122.167,47.167 169.208,82.417l-88.417,201.667c-24.417,-18.542 -52.542,-34.958 -84.375,-49.292c-31.833,-14.333 -64.708,-25.417 -98.667,-33.167c-33.917,-7.75 -66.958,-11.667 -99.083,-11.667c-39.875,0 -72.167,6.125 -96.875,18.375c-24.708,12.25 -37.083,29.125 -37.083,50.625c0,22.125 10.75,38.542 32.167,49.292c21.417,10.75 64.292,23 128.583,36.75c129.75,26.292 221.708,61.667 275.875,106.208c54.167,44.5 81.25,106.792 81.25,186.833c0,62.125 -16.833,116.208 -50.458,162.208c-33.625,46 -80.333,81.708 -140.167,107.083c-59.833,25.375 -129.625,38.083 -209.375,38.083c-84.542,0 -161.75,-10.458 -231.708,-31.375c-69.917,-20.917 -130.208,-50.458 -180.792,-88.708l91.083,-201.625c49.375,31.667 102.375,56.583 158.917,74.833c56.542,18.208 110.125,27.333 160.708,27.333c46.417,0 81.833,-6.417 106.25,-19.292c24.417,-12.833 36.625,-31.5 36.625,-56c0,-21.5 -11.167,-37.333 -33.5,-47.5c-22.333,-10.167 -65.917,-21.208 -130.792,-33.167c-122.625,-20.875 -212.375,-55.375 -269.208,-103.5c-56.833,-48.083 -85.25,-113.958 -85.25,-197.583c0,-59.75 16.375,-112 49.083,-156.833c32.75,-44.792 78.125,-79.583 136.167,-104.375c58.042,-24.792 124.875,-37.208 200.458,-37.208Z" style="fill:#0e3a27;fill-rule:nonzero;"></path><path d="M1644.208,691.667c100.125,0 188.583,22.042 265.333,66.083c76.75,44.042 136.708,102.917 179.875,176.625c43.167,73.708 64.75,154.625 64.75,242.708c0,64.125 -12.292,125.417 -36.875,183.833c-24.583,58.417 -59.667,110.125 -105.25,155.042c-45.542,44.958 -99.5,80.625 -161.875,107c-62.375,26.375 -131,39.542 -205.958,39.542c-100.125,0 -188.583,-22.042 -265.333,-66.083c-76.75,-44.042 -136.875,-102.917 -180.333,-176.625c-43.458,-73.708 -65.208,-154.625 -65.208,-242.708c0,-64.125 12.458,-125.417 37.333,-183.833c24.875,-58.417 60.083,-110.25 105.667,-155.5c45.583,-45.25 99.542,-80.917 161.917,-107c62.333,-26.042 131,-39.083 205.958,-39.083Zm0,253.5c-42.583,0 -80.667,9.417 -114.25,28.292c-33.583,18.917 -59.958,45.583 -79.125,80.042c-19.208,34.458 -28.792,75.625 -28.792,123.583c0,47.333 9.75,88.375 29.25,123.167c19.458,34.75 46,61.542 79.583,80.458c33.583,18.875 71.333,28.292 113.333,28.292c41.958,0 79.75,-9.417 113.333,-28.292c33.583,-18.917 59.958,-45.708 79.125,-80.458c19.208,-34.792 28.792,-75.833 28.792,-123.167c0,-47.958 -9.458,-89.125 -28.333,-123.583c-18.875,-34.458 -45.125,-61.125 -78.708,-80.042c-33.583,-18.875 -71.625,-28.292 -114.208,-28.292Z" style="fill:#0e3a27;fill-rule:nonzero;"></path><path d="M4580.875,691.667c79.792,0 150.958,14.25 213.5,42.708c62.5,28.458 114.167,68 154.958,118.667c40.792,50.625 68.958,110.25 84.417,178.875c15.5,68.625 16.083,143.083 1.792,223.375l-684.25,0c0.625,35.958 11.333,67.417 32.167,94.375c20.833,26.958 49.417,48.083 85.75,63.375c36.333,15.292 78.625,22.917 126.833,22.917c53.625,0 104.542,-7.042 152.75,-21.125c48.25,-14.083 94.417,-35.792 138.458,-65.167l92,199.583c-27.958,21.542 -64.167,40.875 -108.5,57.958c-44.375,17.083 -91.417,30.583 -141.167,40.458c-49.708,9.875 -97.208,14.833 -142.458,14.833c-100.042,0 -187.875,-20.208 -263.5,-60.667c-75.625,-40.458 -134.583,-97.083 -176.875,-169.917c-42.292,-72.792 -63.417,-158.042 -63.417,-255.75c0,-70.708 12.375,-135.708 37.083,-195.042c24.708,-59.333 59.25,-110.583 103.625,-153.708c44.333,-43.167 96.75,-76.583 157.208,-100.25c60.417,-23.667 126.958,-35.5 199.625,-35.5Zm-8.042,213.042c-56.583,0 -103.458,13.792 -140.667,41.333c-37.25,27.583 -58.208,64.458 -63,110.583l387.667,0c-1.167,-46.125 -18.167,-83 -50.917,-110.583c-32.75,-27.542 -77.083,-41.333 -133.083,-41.333Z" style="fill:#0e3a27;fill-rule:nonzero;"></path><path d="M6817.208,8.758c-232.542,-12.608 -452,258.033 -683.542,548.158c-142.833,-136 -279.542,-182.667 -406.208,-139c-5.875,2.083 -9.958,6.667 -10.667,12.083c-0.708,5.458 2.042,10.792 7.25,13.875c147.917,89.417 270.708,206.375 359.167,342.167c12.375,19 35.708,30.708 60.958,30.625l0.875,0c25.583,-0.125 49,-12.417 60.917,-31.958c200.208,-322.833 403.667,-568.292 622.083,-750.312c4.958,-4.046 6.583,-10.258 4.208,-15.763c-2.333,-5.546 -8.25,-9.404 -15.042,-9.875Z" style="fill:#289642;fill-rule:nonzero;"></path><g transform="matrix(1,0,0,0.999264,0,-17.021647)"><g transform="matrix(1793.188854,0,0,1793.188854,20739.676202,1649.047893)"></g><text x="7602.775px" y="1649.048px" style="font-family:&#39;Geologica-ExtraLight&#39;, &#39;Geologica&#39;;font-weight:250;font-size:1793.189px;fill:#0e3a27;">|<tspan x="7979.344px 8339.775px 9407.619px 10311.386px 11067.216px 11970.983px 12830.817px 13431.535px 14234.884px 15196.033px 15556.464px 16414.505px 16745.348px 17784.501px 18385.219px 19245.053px 19845.772px " y="1649.048px 1649.048px 1649.048px 1649.048px 1649.048px 1649.048px 1649.048px 1649.048px 1649.048px 1649.048px 1649.048px 1649.048px 1649.048px 1649.048px 1649.048px 1649.048px 1649.048px "> Research Library</tspan></text></g></g></svg>